<svg id="a495f563-85af-48a3-8da9-26c0e2a755f9" data-name="Layer 1" xmlns="http://www.w3.org/2000/svg" viewBox="0 0 192.68 18.14"><defs><style>.e0635330-9cc3-4df9-baad-9f68a5d878d0{fill:#e83e2e;}</style></defs><path class="e0635330-9cc3-4df9-baad-9f68a5d878d0" d="M187.8,7.44c.1,0,.25.07.37.11C187.82,7.57,187.65,7.55,187.8,7.44Z" transform="translate(0.02 -1.63)"/><path class="e0635330-9cc3-4df9-baad-9f68a5d878d0" d="M192.66,8.13a17.19,17.19,0,0,1-4.49-.58C189.29,7.49,192.33,7,192.66,8.13Z" transform="translate(0.02 -1.63)"/><path class="e0635330-9cc3-4df9-baad-9f68a5d878d0" d="M187.64,5.65l1.56.4C188.27,6.3,188.46,5.79,187.64,5.65Z" transform="translate(0.02 -1.63)"/><polygon class="e0635330-9cc3-4df9-baad-9f68a5d878d0" points="188.19 5.07 188.1 5.47 187.28 5.04 188.19 5.07"/><path class="e0635330-9cc3-4df9-baad-9f68a5d878d0" d="M108.1,9.91a.61.61,0,0,1,.22.6Z" transform="translate(0.02 -1.63)"/><path class="e0635330-9cc3-4df9-baad-9f68a5d878d0" d="M104.39,8.17a7.17,7.17,0,0,0-.75-.08A1.62,1.62,0,0,1,104.39,8.17Z" transform="translate(0.02 -1.63)"/><path class="e0635330-9cc3-4df9-baad-9f68a5d878d0" d="M111.39,9.67l-.65.07A1.59,1.59,0,0,1,111.39,9.67Z" transform="translate(0.02 -1.63)"/><path class="e0635330-9cc3-4df9-baad-9f68a5d878d0" d="M151.58,8c.6.3,1.17.57,1.6.76C152,9,151.91,8.34,151.58,8Z" transform="translate(0.02 -1.63)"/><path class="e0635330-9cc3-4df9-baad-9f68a5d878d0" d="M87.34,2.87l-.13.33C87,3.06,86.93,2.92,87.34,2.87Z" transform="translate(0.02 -1.63)"/><path class="e0635330-9cc3-4df9-baad-9f68a5d878d0" d="M103.25,2.81a.63.63,0,0,1-.07.43L103,3.16Z" transform="translate(0.02 -1.63)"/><path class="e0635330-9cc3-4df9-baad-9f68a5d878d0" d="M113.91,9l0,0,.53.2C114.2,9.18,114,9.13,113.91,9Z" transform="translate(0.02 -1.63)"/><path class="e0635330-9cc3-4df9-baad-9f68a5d878d0" d="M82.19,2.64A2.86,2.86,0,0,1,81.51,2C82,2.09,82.26,2.39,82.19,2.64Z" transform="translate(0.02 -1.63)"/><polygon class="e0635330-9cc3-4df9-baad-9f68a5d878d0" points="103.57 6.46 103.56 6.45 103.66 6.46 103.57 6.46"/><path class="e0635330-9cc3-4df9-baad-9f68a5d878d0" d="M108.53,3l-.84-.15A1,1,0,0,1,108.53,3Z" transform="translate(0.02 -1.63)"/><path class="e0635330-9cc3-4df9-baad-9f68a5d878d0" d="M151.58,8l-.51-.25A.66.66,0,0,1,151.58,8Z" transform="translate(0.02 -1.63)"/><path class="e0635330-9cc3-4df9-baad-9f68a5d878d0" d="M183.56,8a.64.64,0,0,1-.71-.49A2,2,0,0,1,183.56,8Z" transform="translate(0.02 -1.63)"/><path class="e0635330-9cc3-4df9-baad-9f68a5d878d0" d="M1,16.37l-.2,0A.37.37,0,0,1,1,16.37Z" transform="translate(0.02 -1.63)"/><path class="e0635330-9cc3-4df9-baad-9f68a5d878d0" d="M20.3,15a1.05,1.05,0,0,1,.29.23C20.44,15.36,20.32,15.22,20.3,15Z" transform="translate(0.02 -1.63)"/><path class="e0635330-9cc3-4df9-baad-9f68a5d878d0" d="M37.08,5.59c-1.21.57-2.63-.28-3.75-.23l.43.37-1.15-.24.08.57c-1.87-.11-4.08.7-4.87-.15l.33.89-2-.54,1.2.52a37.3,37.3,0,0,1-6.05.06l.24.32c-.33.21-.65,0-1-.06l.36.48c-3.32.2-4,1.44-7.81,1.3-1,.23.58.1.64.39-.49.46-1.83.22-2.15,0,.42.76,1.93.35.85,1.12-.89-.3.68.67-.81.68l-.73-1c-.79.27,0,.82-1.35.87-1.55-.28,1.63-1.37-.78-1.24-1.18.2-2.12,2.65-4.51,2.38-1.9.78,1.31,1.46-1.48,1.54l1.87.45c-.41.34,0,.82-1.26.75a3.32,3.32,0,0,0-1.91-.73c2.69.44-2,1.45.52,2.14L1,16.37c.12,0,.17.12.12.21L0,16.8c.75.12,2.49,0,1.82.85l-1.64.41c.54.5,0,.82.18,1.26l5.11.45c-.26-.31-1-.44-.8-.82,1.28-.46,1.19.48,2.36-.14l-.63-.38c.13.15.31.19,0,.28-.39.34-.64,0-.69-.26.35-.62,1.67-.39,2.11,0,1.61-.26.17-1.07.5-1.29,1,.86,2.71-.34,3.79,0l-.74-.55c1.12-.9,2.33-.4,3.09-.26l-.36-.48c1.74-.09,2.35-1.9,3.93-.22l-.23-.32c.69-.24,1.71-.73,2.47-.26a.56.56,0,0,1,.35-.59c.48.67,1.15.06,2.18-.17-.72-.11-.63-1-1.39-1.19,1.49-1.09,1.62.87,3,.72.75-.54-.8-.43-1-.76,2.16.29,4-2.51,5.61-.82l-.83.67c.89.31,1.34.27,1.22.11-.27.08-.38-.08-.5-.24,2.41-1.18,4.12,1,6.62.38-.23-.32-.6-.4-.66-.69C36,12,36.2,14.12,38,13.25l-.42-.36c.6-.29,1.14.24,1.07.36-.13-1.55,4-.25,5.11-2.37,1,.78,3.77,1.24,4.53.71,1.07-1-1.15-.94-.81-1.84.92-.07,1.49.74,2.83.35.11.85-2.51,1.93.1,2.24l.31-.49a1.89,1.89,0,0,1-1,.2c-.79-.46.39-.61.53-.85l2.78.06c.3.9-1.37.8-1.51,1.05,2.15-.35,4.64-1.87,6.73-1.39L58,10.59c2.66.61,1.35-1.78,3.55-.44,1.06-.31-.48-1,1.15-1.12.47,0,.23.33.15.45,2,.2.81-.92,2.75-.19l-.49-.95c2.29.54,4.76,2.1,6.64,1.58-.18-.74-1.36-.6-1.88-1.15,2.71,1.21,6.25-.16,8.71.45-.67.67,1.25,1.43-.25,2-.47-.95-1.14-.28-2-.35,1.49,2,5.48-1.29,6,.53l.29-.77c.38.09,1.35.62.73.88L86.06,11c-1-.53-3-1.75-3.58-.91-.81-.76,1-.58.31-1.46C84.66,9.75,83.85,8,85.7,8.2c-.75,1.12,1.93,1.39,1.89,1.92a3.89,3.89,0,0,1,2.49.57c1.07.06,3.45-.91,5.18-.59-.67-.32-1.72-.73-1.68-1.42.86.36,1.77.32,1.88-.49-3.06-1.36-.84,1.88-3.59,1-.72-.89-1.47-1.09-2.87-1.3.59-.55.3-.77.52-1.41,1.82,1.86,4.43,0,6.71.9,1,.53.33,1.77,2.46,1.91L96.91,10c2-.6.5.55,2.16.72l-.69-.61a2.12,2.12,0,0,1,2,.38l-.91-.94c.54-.14,1.54-.29,1.59.28a1.16,1.16,0,0,0,.15-.59c.12.15.38.25,1,.2-.38-.1-.65,0-.67-.32,2.44.16.51-1.06,2-1-.25-.22.17-.51.7-.65,0,1.53,3,1.65,3.86,2.48v0l2.06.57c-.41-.12,0-.55.59-.72h-.09c.63-.25-.84-1.64,1.12-1.24l1,.42c-.18,0,0-.28.08-.4l1.06.39c1.55-1.45,3.06.75,4.92,0-.54.13-1.37,0-1-.43a1.31,1.31,0,0,1,1.21.2l-.1-.17,3.63.89c-.31-.51-2.33-.52-1.45-1.12.51-.7,1.57,0,2.22.07-.07.41-1.25.78,0,1,.14-.2,1.27-.63.72-.91a18.8,18.8,0,0,1,4.17,1.34c.34-.18-.21-.35-.4-.4l-.08.12c-.75-.22-.15-1-1.59-.61-.16-1.32,2.09-.38,3.36-.57l-2.06-.89c3.39-1.85,8.09.11,11.49.14-1,.41-1.83,0-1.69,1.05a19.14,19.14,0,0,0,3.95.49L141,9.06c1.08-.52,2.58.51,3.29-.42-.48-.57-1.55.53-1.59-.62l2.67.1c-.84-.69-2.67-.1-3.68-.27-.73.06,1.47.17,1.13.92-2.48,0-3.06-.8-4.3-1.87-.76-.8,1.08-.82,1.54-.82a8,8,0,0,0,6.38,1.24l1.35-.86c1.23.8.71,2.35,2.92,2.18L150,8a2.23,2.23,0,0,1,1-.31c-.95-.49-2-1-2.84-1.53,1.25-1.32,3.62.7,5.46,1-.09-.18-.74-.24-.93-.58,2.75-.28,5.63,1.35,7.75,1.61.91-.56-1.76-.42-1.32-1.28,1.12.36,2.39-.37,2.68.43-.48-1.15,2.57,0,.44-1.14,4-.41,8.47.76,12.53,1.55a.75.75,0,0,1,0-.87c-1.38,0-3.4-.42-4.15-1.24.92-.55,2.13.85,2.4.51-.46-.3-1.38-.31-1.38-.89,1.19-.61,1.84.33,2.67.46l-.46.28c2.57.87,1.38,2,4.14,1.82,1-.66,0-.57,0-1.43.64.36,2.75-.5,3.4.44h-1.67a28.46,28.46,0,0,1,3.06.65.65.65,0,0,0-.38-.46c.92.32,2.11.3,2.56.89l.29-.91c-.56.38-2.22.39-2.48-.14.19-.8,1.84-.23,2.57-.26-3.21-.4-3.21-1.83-6-1.33l.46.3c-1.72.63-3.44-.58-4.94-.6.43-.18.52-.51.33-.67-3.32.61-6.56,0-10.33.32l-1.12-.94-.08.69c-1.84.26-.39-1-1.57-.94.45,0,.36.12.46.29-2.14-.83-1.2.62-2.4.38.57.75,2.31.31,1.77,1.28-2.12-.83-5.44-.46-5.75-2.12-4,.59-8.87-.49-12.21-.66-.45.29.29.23.12.46-1.33-1-4.41.65-4.44-.21A2.3,2.3,0,0,0,138.68,4a9.26,9.26,0,0,0-3-.73l.79.24-.08.11-1.12-.33,0-.06c-2.68-.24-5.76,0-8.21-.92,1.41.55-.32,1,.35,1.37-1.27-1.36-4.23-1.36-6.62-1.19,0,.29-.16.52.13.75l-1.41-.55.2.35c-2.48.28-5.25-1.19-6.87-.51,1,.14,1,.43,1.16.88A29.57,29.57,0,0,1,108.53,3a.39.39,0,0,1,.2.28A4,4,0,0,1,107,3l0,.69c-1.08-.29-2.43.1-3.73-.41-.45.77-3.1-.62-4.54-.25-.57-.15,1.26.75-.31.76-.31-1.49-2,0-2.25-1.58l-1.34.64L94.39,2C93.32,3.56,92.58,1.4,90.87,2c.1.17.29.22.21.33-.57-.14-1.87-.19-.89-.64-.93,0-4.1-.21-2.63.58-.13-.45,1.18-.11,1.76,0,0,.7-1.44.48-1.73,1.24a2.43,2.43,0,0,0-.38-.29L87,3.63c-1.79-.68-3.51-.06-4.85-1,0,.22-.35.4-1,.38l-.08-.86-1.85.1,1,1.21c-2,.35-3.54-1-5.22-1.13-.31,1.46-3.29-.38-4.62,1l1.33.32c-2.8-.12-3.16.78-5.79.43A23.42,23.42,0,0,0,71.26,2.4c-3.16.78-5.62-.5-8.49.51.23.33,1,.51.3.9-.64-.7-2.77.2-2.41-.69-.89.35-1,1.17-1.52,1.32L56,3.58l.11.16c-5,2.35-9.85-.66-15,.61l.15.45-1.38-.57c1.07.37-.38.61-.41,1L36,4.53C36,4.94,36.29,5.83,37.08,5.59ZM81.15,3.14l.8,0a.65.65,0,0,1,.51,0H82C81.55,3.3,81.28,3.67,81.15,3.14Zm73.19.52c.38.4-.56.11-.82.16l1.29.13C155,3.72,154.52,3.72,154.34,3.66Zm-72.73,5-.4.6-.6-.43Zm-11.18.62,1.14.27-.08.12-1.13-.27ZM57.57,5.42a1.38,1.38,0,0,1,.22.1.54.54,0,0,1-.22-.1c-.91-.35-1.15.7-2-.25C56.4,4.25,57,5.1,57.57,5.42ZM77.29,4.28a1.59,1.59,0,0,0,.84.07c-.22-.34-1-.81-.47-1,.42.38,1.71.42,1.77,1C78.27,3.82,77.6,5.47,77.29,4.28Zm26.49-.63-.28.07,1,.42Zm4.83.47c.61.72,2.07.56,3.09.7.24-.64-.83-1.35-2-1.26C108.25,3,109.2,4.56,108.61,4.12ZM68.76,5.85l.33.49-.26.08L70,6.69c-1.39.78-2.54-.46-3.31-.64C67.31,6.06,69.19,7.21,68.76,5.85Zm50.11-1.57c1,.44,2.9,1,2.75,1.49,0-1-1.46-1.4-1.93-1.39A1.46,1.46,0,0,1,118.87,4.28Zm0,1.85c-1.5-.43-1.62-.89-2.79-1.78,1.46-.44,1.91.82,1.75,1.34,1,.44.82-.19,1.36-.32ZM117.24,3.4l-.6.15c-.71.42-.81,1.53-1.86.44l1.86-.44A1,1,0,0,1,117.24,3.4Zm12.5-.08L129.12,3c.61,0,.68.18.62.34l.52.28C128.94,4,129.62,3.62,129.74,3.32Zm-9.52.36-1.76-.08C118.57,4.06,119.66,3.8,120.22,3.68Zm9.15.51a22.48,22.48,0,0,1-2.39.15C127.14,3.82,128.9,3.91,129.37,4.19Zm38.74,1.75L167,5.86l.55-.68Zm-13,.25.27-.34.64.06Zm-11.95-.08a.61.61,0,0,0-.08-.5.73.73,0,0,1-.42-.29.55.55,0,0,1,.42.29,2.1,2.1,0,0,0,1.52-.13c-.2-.34-.94-.28-1.23-.51,1.09-.81,3.57,1.66,2.85-.7.47.29,2.05.92,1.51,1.32a11.82,11.82,0,0,0-4.57.52.39.39,0,0,1-.37.24A1.07,1.07,0,0,1,143.19,6.11Zm-16.09.53a1.45,1.45,0,0,1-.74-.2c-.4-.17-.7-.43-.59-.75,1,.27.35.54.59.75A2.47,2.47,0,0,0,127.1,6.64Zm-2.84.17,1.49.43-.76-.5,2.25.93A2.57,2.57,0,0,1,124.26,6.81Zm-.51.46-.32-.56.48.57h-.16l.08.12-2.5-.29ZM98.29,6.69c-.82,2,2.28,1.3,2.81,2.22.07-.65,1-1.68-1.47-1.59,2.06-.71,1.38,1.22,2.55-.44a5.92,5.92,0,0,1-2.42-.37l1.18-.1C100.2,5.23,99.14,7.05,98.29,6.69Zm-12.75.77L84,7.48l1.49.09ZM47.19,10.24c.16.45-1.74,1.42-2.31.6C45.87,10.64,47,10.6,47.19,10.24ZM30.72,11.47l1.79.23c-.2,1.06-1.56.09-2.35.35C29.81,11.56,30.5,11.84,30.72,11.47ZM19.4,12.55l-.58-.11.73,1Zm1,1.29c-.28.49.94.59,1.21.5Zm-10,2,.71-.15-.79-.83Zm1-1.2c.27.64.33,1.52,1.92.9,0-.69-.48-.64,0-1.51a2,2,0,0,0-1.24.32c.39.07.79-.27,1,.18a1.84,1.84,0,0,1-1.65.11.77.77,0,0,0-.46-.49A.74.74,0,0,0,11.32,14.63Zm5.92-1.37a1.19,1.19,0,0,0,.46-.34l.13.16a.39.39,0,0,1-.59.18c-.23.11-.49.22-.77.33-.1.59,1.1.87,1.44,1.16-.56-.11-1.12-.62-1.78-.2.12.16,0,.29.49.23l-1,.23c-1.25-.68-.21-1,.82-1.42a.67.67,0,0,1,.25-.44C16.88,13.05,17.06,13.17,17.24,13.26Zm-8.19-.41.58.1c.31.2.17.45.29.6C9.28,13.58,8.38,13.28,9.05,12.85ZM41.83,9.49c-.35.21.57.82,1.37.57l-.34.9c-.09-.57-1.72-.37-1.91-.41C40.57,9.78,41.25,10.06,41.83,9.49ZM80.07,7.06c.38,1.07,2.43.33,2.91.59C81.91,7.94,79.45,8.3,80.07,7.06Zm3.61-.61c.57,0,.73-.12.71.43.29.22.72-.09,1,.12-1.08.53-1.07-.35-1.73-.55a3.52,3.52,0,0,1-.54,0A1.18,1.18,0,0,1,83.68,6.45ZM61.28,7.58l-.83-.75L59.26,7ZM48.34,7c.15.45-1.22.57-1.52.36.15.6,1.06.45,1.79.46a1.12,1.12,0,0,0,.49,0,2.49,2.49,0,0,0-.49,0c-.29-.12-.13-.44-.15-.65L48.8,7l-1-.09ZM25.77,8.27a1.27,1.27,0,0,1-1.44.27C24.47,8.29,25.19,8.15,25.77,8.27ZM55.08,6c-1.35.39.75.86-.12,1.22l.71-.11c-1.1.72-.9-.63-1.71-.39l.54-.16c.38-.6-.88-.33-1-.78C54.09,5.52,55.61,5.86,55.08,6ZM24.43,8c-1.28.72-1.21-.51-2.05-.53C23.4,6.84,23.39,7.94,24.43,8ZM46.21,4.89l.07-.12-1.14-.25-.08.12Z" transform="translate(0.02 -1.63)"/><path class="e0635330-9cc3-4df9-baad-9f68a5d878d0" d="M23.56,14.18a1.47,1.47,0,0,1-.73.09A3.39,3.39,0,0,1,23.56,14.18Z" transform="translate(0.02 -1.63)"/><path class="e0635330-9cc3-4df9-baad-9f68a5d878d0" d="M87.3,10.42c0-.16.13-.24.29-.3C87.57,10.21,87.5,10.31,87.3,10.42Z" transform="translate(0.02 -1.63)"/><polygon class="e0635330-9cc3-4df9-baad-9f68a5d878d0" points="90 9.06 90.1 9.06 90.19 9.11 90 9.06"/><path class="e0635330-9cc3-4df9-baad-9f68a5d878d0" d="M182.73,8.7c.55.77-.55.1-1,.09C182.18,8.8,182.37,8.29,182.73,8.7Z" transform="translate(0.02 -1.63)"/><path class="e0635330-9cc3-4df9-baad-9f68a5d878d0" d="M179.15,7.34a2.3,2.3,0,0,0,1.13.47A1.69,1.69,0,0,1,179.15,7.34Z" transform="translate(0.02 -1.63)"/><path class="e0635330-9cc3-4df9-baad-9f68a5d878d0" d="M182.09,7.77a5.32,5.32,0,0,1-1.81,0A4.07,4.07,0,0,1,182.09,7.77Z" transform="translate(0.02 -1.63)"/><path class="e0635330-9cc3-4df9-baad-9f68a5d878d0" d="M169.41,7.23a2.35,2.35,0,0,0,1.65.26c-2.39.36.47.87.66,1.22C170.24,8.51,170.24,7.94,169.41,7.23Z" transform="translate(0.02 -1.63)"/><path class="e0635330-9cc3-4df9-baad-9f68a5d878d0" d="M166.25,6.91a2.3,2.3,0,0,0,.67-.07A1.05,1.05,0,0,1,166.25,6.91Z" transform="translate(0.02 -1.63)"/><path class="e0635330-9cc3-4df9-baad-9f68a5d878d0" d="M165.36,7.33a2.32,2.32,0,0,1-1.48-1c1-.35,1.63.49,2.37.63C165.67,6.91,165.1,6.84,165.36,7.33Z" transform="translate(0.02 -1.63)"/><path class="e0635330-9cc3-4df9-baad-9f68a5d878d0" d="M140,9.47c.19.06.65.06.66.34h-1.37C138.72,9.65,139.72,9.53,140,9.47Z" transform="translate(0.02 -1.63)"/><path class="e0635330-9cc3-4df9-baad-9f68a5d878d0" d="M134.89,8.08c-1.11,0-.52.7-1.08.53l0-1Z" transform="translate(0.02 -1.63)"/><polygon class="e0635330-9cc3-4df9-baad-9f68a5d878d0" points="135.42 1.5 135.75 1.6 135.38 1.56 135.42 1.5"/><path class="e0635330-9cc3-4df9-baad-9f68a5d878d0" d="M129.61,9.07l.79,1.08C129.47,9.88,129.43,9,129.61,9.07Z" transform="translate(0.02 -1.63)"/><polygon class="e0635330-9cc3-4df9-baad-9f68a5d878d0" points="125.45 8.2 126.11 8.53 124.08 8.23 125.45 8.2"/><polygon class="e0635330-9cc3-4df9-baad-9f68a5d878d0" points="120.38 7.74 120.21 7.97 118.81 7.72 120.38 7.74"/><path class="e0635330-9cc3-4df9-baad-9f68a5d878d0" d="M65.32,10.47c-.3-.91,1.94-.66,2.56-.93C67.54,10.72,66.09,9.26,65.32,10.47Z" transform="translate(0.02 -1.63)"/><path class="e0635330-9cc3-4df9-baad-9f68a5d878d0" d="M25.41,13.58h2.12C26,14.1,27.08,13.64,25.41,13.58Z" transform="translate(0.02 -1.63)"/></svg>